<svg width="116" height="19" viewBox="0 0 116 19" fill="none" xmlns="http://www.w3.org/2000/svg">
<path d="M14.232 8.50195C14.232 9.94857 13.9921 11.2126 13.5123 12.2939C13.0325 13.3682 12.37 14.2311 11.525 14.8828L14.0494 16.8809L11.7184 18.8574L8.35605 16.1504C8.04094 16.1934 7.72584 16.2148 7.41074 16.2148C6.0787 16.2148 4.89706 15.9069 3.86581 15.291C2.83456 14.6751 2.0289 13.7943 1.44882 12.6484C0.875905 11.5026 0.578705 10.1849 0.55722 8.69531V7.86816C0.55722 6.32845 0.836517 4.97493 1.39511 3.80762C1.96087 2.6403 2.76295 1.73796 3.80136 1.10059C4.84693 0.463216 6.0429 0.144531 7.38925 0.144531C8.71412 0.144531 9.89576 0.459635 10.9342 1.08984C11.9726 1.72005 12.7782 2.61882 13.3512 3.78613C13.9312 4.94629 14.2249 6.27832 14.232 7.78223V8.50195ZM10.3971 7.84668C10.3971 6.29264 10.1357 5.11458 9.61288 4.3125C9.09726 3.50326 8.35605 3.09863 7.38925 3.09863C6.39381 3.09863 5.64544 3.49609 5.14413 4.29102C4.64283 5.08594 4.3886 6.24967 4.38144 7.78223V8.50195C4.38144 10.0417 4.63567 11.2233 5.14413 12.0469C5.6526 12.8633 6.40813 13.2715 7.41074 13.2715C8.37037 13.2715 9.10442 12.8669 9.61288 12.0576C10.1285 11.2484 10.3899 10.0846 10.3971 8.56641V7.84668ZM30.0725 0.359375V10.5967C30.0725 11.7568 29.8254 12.763 29.3312 13.6152C28.8371 14.4603 28.1281 15.1048 27.2043 15.5488C26.2805 15.9928 25.1883 16.2148 23.9279 16.2148C22.023 16.2148 20.5226 15.7207 19.4269 14.7324C18.3312 13.7441 17.7726 12.3906 17.7512 10.6719V0.359375H21.5432V10.7471C21.5861 12.4587 22.381 13.3145 23.9279 13.3145C24.7085 13.3145 25.2993 13.0996 25.7004 12.6699C26.1014 12.2402 26.3019 11.542 26.3019 10.5752V0.359375H30.0725ZM42.7332 13.0781H37.5662L36.6639 16H32.6355L38.3719 0.359375H41.9168L47.6961 16H43.6463L42.7332 13.0781ZM38.4685 10.167H41.8309L40.1443 4.74219L38.4685 10.167ZM63.558 16H59.809L54.266 6.26758V16H50.4955V0.359375H54.266L59.7982 10.0918V0.359375H63.558V16ZM79.5488 3.27051H74.8545V16H71.084V3.27051H66.4756V0.359375H79.5488V3.27051ZM95.067 0.359375V10.5967C95.067 11.7568 94.8199 12.763 94.3258 13.6152C93.8316 14.4603 93.1227 15.1048 92.1988 15.5488C91.275 15.9928 90.1829 16.2148 88.9225 16.2148C87.0175 16.2148 85.5172 15.7207 84.4215 14.7324C83.3258 13.7441 82.7672 12.3906 82.7457 10.6719V0.359375H86.5377V10.7471C86.5807 12.4587 87.3756 13.3145 88.9225 13.3145C89.7031 13.3145 90.2939 13.0996 90.6949 12.6699C91.096 12.2402 91.2965 11.542 91.2965 10.5752V0.359375H95.067ZM104.032 0.359375L107.524 11.2412L111.004 0.359375H115.967V16H112.186V12.3477L112.551 4.87109L108.77 16H106.278L102.486 4.86035L102.851 12.3477V16H99.0803V0.359375H104.032Z" fill="#4D4D4D"/>
</svg>
